<svg viewBox="0 0 64 64" xmlns="http://www.w3.org/2000/svg">
  <rect width="64" height="64" rx="14" fill="#0d0d0d"/>
  <path d="M24 48 L14 62 L28 54 Z" fill="#2e9a3a"/>
  <rect x="10" y="55" width="44" height="3" rx="1.5" fill="#7a5230"/>
  <ellipse cx="33" cy="37" rx="14" ry="17" fill="#46c24f"/>
  <path d="M31 26 C41 28 47 40 44 52 C38 54 28 50 25 42 C23 34 25 28 31 26 Z" fill="#2e9a3a"/>
  <path d="M30 32 C38 35 42 44 42 50" fill="none" stroke="#1c7a2a" stroke-width="1.4" stroke-linecap="round"/>
  <path d="M27 37 C35 40 39 47 39 51" fill="none" stroke="#1c7a2a" stroke-width="1.4" stroke-linecap="round"/>
  <path d="M30 52 L30 58 M38 52 L38 58" stroke="#e0902f" stroke-width="2" stroke-linecap="round"/>
  <circle cx="39" cy="20" r="12" fill="#7ed957"/>
  <circle cx="43" cy="22" r="7.5" fill="#f2f7c0"/>
  <circle cx="41" cy="28" r="2.3" fill="#3aa6d0"/>
  <circle cx="37" cy="31" r="1" fill="#1c7a2a"/>
  <circle cx="43" cy="32" r="1" fill="#1c7a2a"/>
  <circle cx="43" cy="18" r="3" fill="#0c1f0b"/>
  <circle cx="44.2" cy="16.9" r="1" fill="#ffffff"/>
  <path d="M50 18 C56 17 60 20 59 24 C57 27 52 26 50 23 Z" fill="#efb24e"/>
</svg>
